<svg width="163" height="163" viewBox="0 0 163 163" fill="none" xmlns="http://www.w3.org/2000/svg">
<rect width="163" height="163" fill="white"/>
<g clip-path="url(#clip0_6_104)">
<path d="M98.6947 99.7186C90.3947 105.836 78.3643 109.1 68.0063 109.1C53.4828 109.1 40.4079 103.729 30.5162 94.7946C29.7391 94.092 30.4354 93.1346 31.368 93.6817C42.043 99.8927 55.2423 103.629 68.8767 103.629C78.0721 103.629 88.1875 101.727 97.4886 97.7789C98.8937 97.182 100.069 98.699 98.6947 99.7186Z" fill="#FF9900"/>
<path d="M102.145 95.7707C101.088 94.4153 95.1323 95.1303 92.4588 95.4474C91.6444 95.5469 91.52 94.8381 92.2537 94.3283C96.9974 90.9896 104.781 91.9533 105.689 93.0724C106.597 94.1977 105.453 102 100.995 105.725C100.311 106.297 99.6584 105.992 99.9631 105.233C100.964 102.734 103.208 97.1323 102.145 95.7707Z" fill="#FF9900"/>
<path d="M92.6453 70.7586V67.5132C92.6453 67.022 93.0184 66.6925 93.466 66.6925H107.996C108.462 66.6925 108.835 67.0282 108.835 67.5132V70.2923C108.829 70.7586 108.437 71.3679 107.741 72.3316L100.212 83.0812C103.009 83.0128 105.963 83.4294 108.499 84.8593C109.071 85.1826 109.227 85.6551 109.27 86.1214V89.5845C109.27 90.057 108.748 90.6103 108.201 90.3243C103.731 87.9804 97.7932 87.7255 92.8505 90.3492C92.3469 90.6227 91.8184 90.0756 91.8184 89.6031V86.3142C91.8184 85.7857 91.8246 84.8842 92.3531 84.0822L101.076 71.5731H93.4846C93.0184 71.5731 92.6453 71.2435 92.6453 70.7586Z" fill="#221F1F"/>
<path d="M39.6432 91.0082H35.2227C34.7999 90.9771 34.4642 90.66 34.4331 90.2559V67.5691C34.4331 67.1153 34.8124 66.7547 35.2849 66.7547H39.4069C39.8359 66.7733 40.1779 67.1028 40.2089 67.5132V70.4788H40.2898C41.3654 67.6127 43.386 66.2759 46.1091 66.2759C48.8758 66.2759 50.6042 67.6127 51.8477 70.4788C52.917 67.6127 55.348 66.2759 57.953 66.2759C59.8057 66.2759 61.8326 67.0407 63.0698 68.7566C64.4687 70.6653 64.1827 73.4382 64.1827 75.8692L64.1765 90.1875C64.1765 90.6414 63.7972 91.0082 63.3247 91.0082H58.9105C58.469 90.9771 58.1147 90.6227 58.1147 90.1875V78.1633C58.1147 77.2059 58.2017 74.8185 57.9903 73.9107C57.6608 72.3875 56.6723 71.9585 55.3915 71.9585C54.3221 71.9585 53.203 72.6735 52.7492 73.8175C52.2953 74.9615 52.3388 76.8764 52.3388 78.1633V90.1875C52.3388 90.6414 51.9596 91.0082 51.4871 91.0082H47.0728C46.6252 90.9771 46.277 90.6227 46.277 90.1875L46.2708 78.1633C46.2708 75.6329 46.6873 71.9088 43.5476 71.9088C40.3706 71.9088 40.4949 75.5397 40.4949 78.1633V90.1875C40.4949 90.6414 40.1157 91.0082 39.6432 91.0082Z" fill="#221F1F"/>
<path d="M121.344 66.2759C127.903 66.2759 131.453 71.9088 131.453 79.0711C131.453 85.9909 127.53 91.4807 121.344 91.4807C114.903 91.4807 111.397 85.8479 111.397 78.8286C111.397 71.7658 114.947 66.2759 121.344 66.2759ZM121.382 70.9078C118.124 70.9078 117.919 75.3469 117.919 78.1136C117.919 80.8865 117.875 86.8053 121.344 86.8053C124.77 86.8053 124.932 82.0305 124.932 79.1208C124.932 77.2059 124.851 74.9179 124.273 73.1025C123.775 71.5233 122.787 70.9078 121.382 70.9078Z" fill="#221F1F"/>
<path d="M139.959 91.0082H135.557C135.115 90.9771 134.761 90.6227 134.761 90.1875L134.755 67.4945C134.792 67.078 135.159 66.7547 135.607 66.7547H139.704C140.089 66.7733 140.406 67.0344 140.493 67.3888V70.8581H140.574C141.811 67.7556 143.546 66.2759 146.599 66.2759C148.582 66.2759 150.516 66.9909 151.759 68.9494C152.915 70.7648 152.915 73.8175 152.915 76.0122V90.2932C152.866 90.6911 152.499 91.0082 152.064 91.0082H147.631C147.227 90.9771 146.891 90.6787 146.847 90.2932V77.9706C146.847 75.4899 147.133 71.859 144.081 71.859C143.005 71.859 142.017 72.5802 141.525 73.6745C140.904 75.0609 140.823 76.4412 140.823 77.9706V90.1875C140.817 90.6414 140.431 91.0082 139.959 91.0082Z" fill="#221F1F"/>
<path d="M81.0626 80.1715V79.2141C77.8669 79.2141 74.4909 79.898 74.4909 83.6656C74.4909 85.5743 75.4795 86.8675 77.1768 86.8675C78.4202 86.8675 79.5331 86.1028 80.2357 84.8593C81.1061 83.3299 81.0626 81.8937 81.0626 80.1715ZM85.5204 90.946C85.2281 91.2072 84.8054 91.2258 84.4758 91.0517C83.0086 89.8332 82.7475 89.2674 81.9392 88.1048C79.5145 90.5792 77.7985 91.3191 74.6526 91.3191C70.9347 91.3191 68.0374 89.0249 68.0374 84.4304C68.0374 80.843 69.9834 78.3996 72.7501 77.2059C75.15 76.149 78.5011 75.9624 81.0626 75.6702V75.0982C81.0626 74.0475 81.1434 72.8041 80.5279 71.8964C79.987 71.0819 78.9549 70.7462 78.0472 70.7462C76.3623 70.7462 74.8577 71.6104 74.4909 73.4009C74.4163 73.7988 74.1241 74.1905 73.7262 74.2092L69.4363 73.7491C69.0757 73.6683 68.6778 73.3761 68.7773 72.8227C69.7658 67.6251 74.4598 66.0583 78.6627 66.0583C80.8139 66.0583 83.6241 66.6303 85.3214 68.2593C87.4726 70.2674 87.2674 72.9471 87.2674 75.863V82.7517C87.2674 84.822 88.1254 85.7298 88.9336 86.8489C89.2196 87.2468 89.2818 87.7255 88.9212 88.0239C88.0197 88.7762 86.4156 90.1751 85.5328 90.9585L85.5204 90.946Z" fill="#221F1F"/>
<path d="M23.1115 80.1715V79.2141C19.9158 79.2141 16.5398 79.898 16.5398 83.6656C16.5398 85.5743 17.5284 86.8675 19.2257 86.8675C20.4691 86.8675 21.582 86.1028 22.2846 84.8593C23.155 83.3299 23.1115 81.8937 23.1115 80.1715ZM27.5692 90.946C27.277 91.2072 26.8543 91.2258 26.5247 91.0517C25.0575 89.8332 24.7963 89.2674 23.9881 88.1048C21.5634 90.5792 19.8474 91.3191 16.7015 91.3191C12.9835 91.3191 10.0863 89.0249 10.0863 84.4304C10.0863 80.843 12.0323 78.3996 14.799 77.2059C17.1988 76.149 20.55 75.9624 23.1115 75.6702V75.0982C23.1115 74.0475 23.1923 72.8041 22.5768 71.8964C22.0359 71.0819 21.0038 70.7462 20.0961 70.7462C18.4112 70.7462 16.9066 71.6104 16.5398 73.4009C16.4652 73.7988 16.173 74.1905 15.7751 74.2092L11.4852 73.7491C11.1246 73.6683 10.7267 73.3761 10.8262 72.8227C11.8147 67.6251 16.5087 66.0583 20.7116 66.0583C22.8628 66.0583 25.673 66.6303 27.3703 68.2593C29.5215 70.2674 29.3163 72.9471 29.3163 75.863V82.7517C29.3163 84.822 30.1743 85.7298 30.9825 86.8489C31.2685 87.2468 31.3307 87.7255 30.9701 88.0239C30.0686 88.7762 28.4645 90.1751 27.5817 90.9585L27.5692 90.946Z" fill="#221F1F"/>
</g>
<defs>
<clipPath id="clip0_6_104">
<rect width="143" height="43.1609" fill="white" transform="translate(10 66)"/>
</clipPath>
</defs>
</svg>
