<svg width="163" height="163" viewBox="0 0 163 163" fill="none" xmlns="http://www.w3.org/2000/svg">
<rect width="163" height="163" fill="white"/>
<g clip-path="url(#clip0_6_106)">
<path d="M46.5864 81.573C45.6418 83.6075 45.1331 84.4795 43.9705 86.3686C42.2993 88.9844 39.9018 92.1815 36.9227 92.1815C34.3069 92.1815 33.5803 90.5101 30.0199 90.5101C26.4595 90.5101 25.6602 92.2542 23.1171 92.2542C20.138 92.2542 17.8855 89.3477 16.1416 86.732C11.4187 79.4659 10.9099 71.037 13.8163 66.5321C15.9235 63.335 19.1934 61.4458 22.3178 61.4458C25.4422 61.4458 27.4041 63.1899 30.0199 63.1899C32.4904 63.1899 34.0162 61.4458 37.6493 61.4458C40.4104 61.4458 43.3166 62.8991 45.4238 65.5149C38.5936 69.2206 39.7563 78.9571 46.5864 81.5002V81.573Z" fill="black"/>
<path d="M34.9608 58.5393C35.6981 57.6317 36.2455 56.585 36.5701 55.4616C36.8946 54.3381 36.9897 53.1609 36.85 51.9999C34.6702 52.1452 32.1998 53.5258 30.7466 55.3423C29.9643 56.197 29.3771 57.2114 29.0258 58.3155C28.6745 59.4196 28.5673 60.5871 28.7119 61.7367C29.928 61.7144 31.1233 61.4148 32.2062 60.8607C33.2891 60.3067 34.2311 59.5126 34.9608 58.5393ZM58.6482 70.02C58.6482 71.4732 57.4857 72.7082 55.7418 72.7082C54.0706 72.7082 52.9808 71.4732 52.9808 70.02C52.9808 68.5667 54.0707 67.3314 55.8145 67.3314C57.5584 67.3314 58.5756 68.4941 58.6482 70.02ZM53.1259 91.8182V74.8156H58.4304V91.8182H53.1259ZM67.4402 72.7809H61.1186V68.3485H79.1387V72.7809H72.7443V91.8182H67.4402V72.8537V72.7809ZM95.9958 86.3686L96.1412 91.8182H91.5634L91.2728 89.4202H91.2001C90.6295 90.3211 89.8331 91.057 88.8897 91.5542C87.9463 92.0514 86.889 92.2928 85.8233 92.2542C82.4082 92.2542 79.8653 90.0742 79.8653 84.7699V74.8156H85.1694V83.9706C85.1694 86.4411 85.9688 87.9669 87.858 87.9669C88.2461 87.9577 88.6284 87.8709 88.9823 87.7115C89.3363 87.5521 89.6545 87.3236 89.9186 87.0392C90.1827 86.7547 90.3872 86.4201 90.52 86.0553C90.6527 85.6906 90.7112 85.3031 90.6917 84.9154V74.7429H95.9958V86.3686ZM100.283 80.1925L100.138 74.8156H104.715L105.006 77.1406H105.078C105.805 76.0507 107.549 74.3796 110.383 74.3796C113.871 74.3796 116.414 76.7048 116.414 81.7184V91.8909H111.182V82.445C111.182 80.1925 110.383 78.6665 108.494 78.6665C107.04 78.6665 106.096 79.6836 105.805 80.7009C105.66 80.9915 105.587 81.5004 105.587 82.009V91.8182H100.283V80.1925ZM124.77 84.9881C124.987 87.168 127.095 88.2579 129.565 88.2579C131.382 88.2579 132.908 88.0399 134.288 87.5313L135.015 91.1643C133.271 91.8909 131.164 92.2542 128.839 92.2542C123.026 92.2542 119.756 88.8392 119.756 83.5349C119.756 79.1753 122.444 74.3796 128.33 74.3796C133.852 74.3796 135.959 78.739 135.959 82.8807C135.959 83.8253 135.814 84.6246 135.741 85.0605H124.842L124.77 84.9881ZM131.018 81.3551C131.018 80.1199 130.437 77.9399 128.039 77.9399C125.859 77.9399 124.915 79.9745 124.77 81.3551H131.018ZM139.084 87.168C140.028 87.8219 142.063 88.4757 143.661 88.4757C145.26 88.4757 145.914 87.9671 145.914 87.0225C145.914 86.0779 145.405 85.7872 143.443 85.1332C139.883 83.898 138.502 82.0088 138.575 80.047C138.575 76.7773 141.263 74.3796 145.478 74.3796C147.512 74.3796 149.256 74.8882 150.346 75.3968L149.401 79.0298C148.602 78.5939 147.149 78.0854 145.696 78.0854C144.388 78.0854 143.661 78.5939 143.661 79.4659C143.661 80.2651 144.315 80.7009 146.422 81.4275C149.619 82.5174 151 84.1887 151.073 86.6592C151.073 89.8563 148.53 92.2542 143.661 92.2542C141.481 92.2542 139.447 91.6728 138.139 91.0188L139.084 87.2403V87.168Z" fill="black"/>
</g>
<defs>
<clipPath id="clip0_6_106">
<rect width="139" height="40.1814" fill="white" transform="translate(12 52)"/>
</clipPath>
</defs>
</svg>
