<svg width="163" height="163" viewBox="0 0 163 163" fill="none" xmlns="http://www.w3.org/2000/svg">
<rect width="163" height="163" fill="white"/>
<path d="M24.1899 77.2952H28.459C30.9124 77.3232 32.0489 76.2418 32.0489 74.3154C32.0489 72.3884 30.9261 71.3352 28.459 71.3352H24.1899V77.2952ZM22 69.4919H29.1935C32.4509 69.4919 34.2251 71.2936 34.2251 74.3014C34.2251 77.3092 32.4509 79.1388 29.1935 79.1111H24.1899V85.7642H22.0137V69.4919H22Z" fill="#192F44"/>
<path d="M45.219 85.776H43.3756V83.905H43.334C42.5024 85.3601 41.1717 86.0532 39.4806 86.0532C36.362 86.0532 35.3919 84.279 35.3919 81.7425V73.9943H37.346V81.978C37.346 83.4197 38.261 84.3483 39.758 84.3483C42.1281 84.3483 43.2786 82.7822 43.2786 80.6616V74.0082H45.219V85.776Z" fill="#192F44"/>
<path d="M47.052 73.9829H48.9096V75.8542H48.951C49.7826 74.3988 51.1132 73.7057 52.8044 73.7057C55.923 73.7057 56.893 75.4799 56.893 78.0164V85.7646H54.9389V77.7809C54.9389 76.3395 54.024 75.4106 52.5269 75.4106C50.1568 75.4106 49.0064 76.991 49.0064 79.0975V85.7507H47.052V73.9829Z" fill="#192F44"/>
<path d="M61.4201 74.0077H63.7901V75.7128H61.4201V83.0311C61.4201 83.9184 61.6696 84.0845 62.8894 84.0845H63.7901V85.7894H62.2934C60.2696 85.7894 59.4657 85.3735 59.4657 83.2113V75.7128H57.4422V74.0077H59.4657V70.4731H61.4201V74.0077Z" fill="#192F44"/>
<path d="M69.9042 84.3367C71.9557 84.3367 73.6049 82.7428 73.6049 79.8872C73.6049 77.0184 71.9557 75.4243 69.9042 75.4243C67.8528 75.4243 66.2036 77.0184 66.2036 79.8872C66.2036 82.7428 67.8668 84.3367 69.9042 84.3367ZM69.9042 73.7057C73.6743 73.7057 75.6704 76.4223 75.6704 79.8872C75.6704 83.3249 73.6743 86.0416 69.9042 86.0416C66.1342 86.0416 64.1381 83.3249 64.1381 79.8872C64.1381 76.4223 66.1342 73.7057 69.9042 73.7057Z" fill="#192F44"/>
<path d="M77.9973 82.0637C78.0667 83.7963 79.5775 84.3367 81.1853 84.3367C82.4051 84.3367 84.0544 84.0595 84.0544 82.5764C84.0544 81.0656 82.1279 80.8161 80.1736 80.3865C78.2468 79.9568 76.2925 79.3191 76.2925 77.0601C76.2925 74.6897 78.6628 73.7057 80.728 73.7057C83.3475 73.7057 85.4404 74.5236 85.5931 77.3927H83.6387C83.5 75.8819 82.1693 75.4106 80.8804 75.4106C79.7022 75.4106 78.3576 75.7292 78.3576 76.9213C78.3576 78.3073 80.4231 78.5429 82.2387 78.9728C84.1931 79.4024 86.1198 80.0399 86.1198 82.3269C86.1198 85.1269 83.4723 86.0416 81.0605 86.0416C78.3993 86.0416 76.14 84.9744 76.0292 82.0497H77.9973V82.0637Z" fill="#192F44"/>
<path d="M111.587 100.998H113.444V102.73H113.486C114.359 101.413 115.69 100.72 117.325 100.72C118.767 100.72 120.111 101.289 120.583 102.73C121.387 101.483 122.786 100.72 124.311 100.72C126.681 100.72 128.261 101.704 128.261 104.144V112.779H126.307V105.045C126.307 103.589 125.919 102.425 124.006 102.425C122.121 102.425 120.901 103.617 120.901 105.433V112.779H118.947V105.045C118.947 103.52 118.462 102.425 116.716 102.425C114.401 102.425 113.541 104.546 113.541 105.433V112.779H111.587V100.998Z" fill="#192F44"/>
<path d="M133.15 106.595L129.02 101.009H131.528L134.384 105.139L137.35 101.009H139.692L135.59 106.428L140.177 112.79H137.669L134.356 107.912L131.043 112.79H128.673L133.15 106.595Z" fill="#192F44"/>
<path d="M107.915 110.245C108.604 110.245 109.163 110.803 109.163 111.492C109.163 112.181 108.604 112.74 107.915 112.74C107.226 112.74 106.667 112.181 106.667 111.492C106.667 110.803 107.226 110.245 107.915 110.245Z" fill="#192F44"/>
<path d="M46.1011 91.7732H46.7386V107.283C46.7386 107.824 46.6278 108.323 46.42 108.752C46.2119 109.182 45.921 109.543 45.5604 109.847C45.2001 110.152 44.7845 110.374 44.3269 110.526C43.8695 110.679 43.3705 110.762 42.8578 110.762C42.3448 110.762 41.846 110.679 41.3747 110.526C40.9034 110.374 40.4874 110.138 40.1272 109.847C39.7669 109.543 39.4757 109.182 39.2679 108.752C39.06 108.323 38.949 107.838 38.949 107.283V91.7732H39.5867V107.283C39.5867 108.198 39.8776 108.905 40.4597 109.418C41.0421 109.931 41.846 110.18 42.8578 110.18C43.8695 110.18 44.6734 109.931 45.2418 109.418C45.8239 108.905 46.1011 108.198 46.1011 107.283V91.7732ZM47.404 91.7732H48.0692V107.283C48.0692 107.99 47.9307 108.628 47.6396 109.196C47.3487 109.764 46.9604 110.263 46.4754 110.679C45.9903 111.095 45.4357 111.414 44.8122 111.635C44.1884 111.871 43.5369 111.982 42.8715 111.982C42.2063 111.982 41.5548 111.871 40.9311 111.635C40.3073 111.414 39.7529 111.081 39.2679 110.679C38.7828 110.263 38.3809 109.778 38.0897 109.196C37.7985 108.628 37.6461 107.99 37.6461 107.283V91.7732H38.3392V107.283C38.3392 107.879 38.45 108.434 38.6718 108.933C38.8936 109.432 39.1985 109.875 39.6004 110.235C40.0024 110.61 40.4874 110.887 41.0418 111.095C41.5965 111.303 42.2063 111.4 42.8855 111.4C43.5369 111.4 44.1467 111.303 44.7011 111.095C45.2555 110.887 45.7408 110.61 46.1428 110.235C46.5447 109.861 46.8633 109.432 47.0991 108.933C47.3347 108.434 47.4457 107.879 47.4457 107.283V91.7732H47.404ZM48.7207 91.7732H49.3861V107.283C49.3861 108.143 49.2197 108.933 48.8731 109.653C48.5268 110.374 48.0692 110.998 47.4734 111.524C46.891 112.051 46.1982 112.467 45.408 112.758C44.618 113.049 43.7587 113.188 42.8578 113.188C41.9568 113.188 41.1112 113.049 40.3073 112.758C39.5174 112.467 38.8105 112.065 38.2144 111.524C37.6184 110.998 37.161 110.374 36.8144 109.653C36.4819 108.933 36.3154 108.143 36.3154 107.283V91.7732H36.9532V107.283C36.9532 108.073 37.1193 108.794 37.4522 109.446C37.7848 110.097 38.2281 110.651 38.7828 111.122C39.3232 111.594 39.9607 111.94 40.6678 112.19C41.3747 112.439 42.1092 112.564 42.8578 112.564C43.6063 112.564 44.3269 112.439 45.034 112.19C45.7408 111.94 46.3643 111.594 46.905 111.122C47.4457 110.651 47.8891 110.097 48.2356 109.446C48.5682 108.794 48.7347 108.073 48.7347 107.283V91.7732H48.7207Z" fill="#192F44"/>
<path d="M58.8363 112.814H58.1432V94.1851H63.7569V94.7949H58.8363V112.814ZM56.2168 112.814H55.5513V94.7949H50.6308V94.1851H56.2168V112.814ZM57.5197 112.814H56.8543V93.5754H50.6448V92.9933H63.7706V93.5754H57.5197V112.814ZM63.7569 92.3832H50.6308V91.7731H63.7569V92.3832Z" fill="#192F44"/>
<path d="M71.5071 109.847C72.6022 109.847 73.4615 109.612 74.0852 109.127C74.709 108.642 75.0139 107.921 75.0139 106.978C75.0139 105.911 74.681 105.107 74.0019 104.58C73.3367 104.054 72.4911 103.79 71.4931 103.79H68.3054V109.861H71.5071V109.847ZM71.5071 100.824C72.5051 100.824 73.3227 100.561 73.9882 100.048C74.6396 99.5354 74.9722 98.7172 74.9722 97.6084C74.9722 96.652 74.6673 95.9452 74.0713 95.4879C73.4615 95.0165 72.6159 94.795 71.5211 94.795H68.3331V100.838H71.5071V100.824ZM75.6237 106.964C75.6237 108.018 75.2634 108.863 74.5563 109.487C73.8494 110.111 72.8237 110.43 71.5071 110.43H67.6539V103.222H71.5071C72.6992 103.222 73.6833 103.541 74.4595 104.164C75.2357 104.775 75.6237 105.717 75.6237 106.964ZM67.6539 94.1709H71.5071C72.8377 94.1709 73.8357 94.4761 74.5286 95.0999C75.2217 95.7097 75.5683 96.5553 75.5683 97.6084C75.5683 98.8699 75.194 99.8263 74.4455 100.478C73.697 101.115 72.7129 101.434 71.5071 101.434H67.6539V94.1709ZM67.0162 102.571V110.998H71.5071C73.0041 110.998 74.1683 110.624 74.9862 109.889C75.8178 109.155 76.2198 108.17 76.2198 106.964C76.2198 106.355 76.1227 105.773 75.9149 105.232C75.7068 104.691 75.4159 104.234 75.0139 103.832C74.612 103.43 74.1129 103.125 73.5308 102.903C72.9485 102.681 72.2693 102.571 71.5071 102.571H67.0162ZM71.5071 102.003C72.2693 102.003 72.9485 101.891 73.5308 101.656C74.1129 101.434 74.612 101.115 74.9999 100.714C75.3882 100.311 75.6931 99.854 75.8869 99.3133C76.095 98.7726 76.1921 98.2045 76.1921 97.581C76.1921 96.3611 75.7901 95.3908 74.9722 94.6563C74.1546 93.9217 73.0041 93.5474 71.5071 93.5474H67.0162V101.989H71.5071V102.003ZM76.8573 106.964C76.8573 108.392 76.3722 109.515 75.4159 110.346C74.4595 111.178 73.1566 111.58 71.5071 111.58H66.3233V92.9793H71.5071C73.1566 92.9793 74.4455 93.395 75.3882 94.2263C76.3305 95.0582 76.8019 96.1807 76.8019 97.5947C76.8019 98.8285 76.483 99.854 75.8732 100.672C75.2494 101.49 74.4038 102.03 73.3507 102.293C74.4038 102.543 75.2494 103.07 75.9009 103.888C76.5384 104.705 76.8573 105.731 76.8573 106.964ZM71.5071 112.218C73.3227 112.218 74.7781 111.76 75.8315 110.832C76.8989 109.903 77.4256 108.614 77.4256 106.964C77.4256 105.897 77.2178 104.969 76.7879 104.192C76.3722 103.416 75.6654 102.779 74.681 102.293C75.6654 101.781 76.3445 101.143 76.7465 100.381C77.1484 99.6182 77.3563 98.6898 77.3563 97.5947C77.3563 95.9452 76.8296 94.6563 75.7901 93.7416C74.7504 92.8266 73.309 92.3693 71.4931 92.3693H65.6856V112.218H71.5071ZM78.0631 106.964C78.0631 107.921 77.9107 108.752 77.6058 109.473C77.3009 110.194 76.8573 110.804 76.2752 111.289C75.6931 111.788 75.0139 112.162 74.21 112.412C73.4061 112.661 72.5051 112.8 71.5071 112.8H65.0618V91.7732H71.5071C73.5031 91.7732 75.083 92.2722 76.2612 93.2702C77.4256 94.2683 78.0217 95.7097 78.0217 97.6084C78.0217 98.842 77.8136 99.8263 77.384 100.547C76.9683 101.282 76.3999 101.864 75.6791 102.307C76.3859 102.751 76.9683 103.333 77.4117 104.054C77.8413 104.761 78.0631 105.731 78.0631 106.964Z" fill="#192F44"/>
<path d="M89.6247 97.3313C89.6247 96.4027 89.3335 95.6818 88.7654 95.1691C88.1833 94.6564 87.3931 94.4069 86.3814 94.4069C85.3693 94.4069 84.5654 94.6564 83.9833 95.1691C83.4012 95.6818 83.1103 96.4027 83.1103 97.3313V107.311C83.1103 108.226 83.4012 108.933 83.9833 109.446C84.5654 109.958 85.3693 110.208 86.3814 110.208C87.3931 110.208 88.197 109.958 88.7654 109.446C89.3475 108.933 89.6247 108.226 89.6247 107.311V97.3313ZM90.2901 107.311C90.2901 107.852 90.1791 108.351 89.9713 108.78C89.7632 109.21 89.4722 109.57 89.112 109.875C88.7514 110.18 88.3358 110.402 87.8644 110.554C87.3931 110.707 86.8941 110.79 86.3814 110.79C85.8684 110.79 85.3693 110.707 84.8983 110.554C84.427 110.402 84.011 110.167 83.6507 109.875C83.2905 109.57 82.9993 109.21 82.7914 108.78C82.5836 108.351 82.4726 107.866 82.4726 107.311V97.3313C82.4726 96.7909 82.5836 96.2919 82.7914 95.8623C82.9993 95.4326 83.2905 95.0583 83.6507 94.7534C84.011 94.4483 84.427 94.2128 84.8983 94.0603C85.3693 93.9079 85.8684 93.8248 86.3814 93.8248C86.8941 93.8248 87.3931 93.9079 87.8644 94.0603C88.3358 94.2128 88.7514 94.4483 89.112 94.7534C89.4722 95.0583 89.7632 95.4326 89.9713 95.8623C90.1791 96.2919 90.2901 96.7772 90.2901 97.3313V107.311ZM90.9136 97.3313C90.9136 96.7353 90.8029 96.1811 90.5673 95.6684C90.3315 95.1551 90.0267 94.7258 89.6107 94.3655C89.2088 94.0049 88.7237 93.7274 88.1693 93.5199C87.6149 93.3118 87.0051 93.2147 86.3537 93.2147C85.6882 93.2147 85.0644 93.3118 84.51 93.5199C83.9556 93.7274 83.4706 94.0049 83.0686 94.3655C82.6667 94.7258 82.3478 95.1551 82.14 95.6684C81.9182 96.1811 81.8074 96.7353 81.8074 97.3313V107.311C81.8074 107.907 81.9182 108.462 82.14 108.96C82.3618 109.459 82.6667 109.903 83.0686 110.263C83.4706 110.638 83.9556 110.915 84.51 111.123C85.0644 111.331 85.6745 111.428 86.3537 111.428C87.0051 111.428 87.6149 111.331 88.1693 111.123C88.7237 110.915 89.2088 110.638 89.6107 110.263C90.0127 109.889 90.3315 109.459 90.5673 108.96C90.8029 108.462 90.9136 107.907 90.9136 107.311V97.3313ZM91.5791 107.311C91.5791 108.018 91.4404 108.656 91.1494 109.224C90.8583 109.792 90.4703 110.291 89.985 110.707C89.4999 111.123 88.9455 111.441 88.3218 111.663C87.698 111.899 87.0465 112.01 86.3814 112.01C85.7159 112.01 85.0644 111.899 84.4409 111.663C83.8172 111.441 83.2628 111.109 82.7775 110.707C82.2924 110.291 81.9045 109.806 81.6133 109.224C81.3221 108.656 81.1836 108.018 81.1836 107.311V97.3313C81.1836 96.6245 81.3221 95.987 81.6133 95.4049C81.9045 94.8228 82.2924 94.3235 82.7775 93.9079C83.2628 93.4919 83.8172 93.1733 84.4409 92.9515C85.0644 92.7297 85.7159 92.6049 86.3814 92.6049C87.0465 92.6049 87.698 92.716 88.3218 92.9515C88.9455 93.1873 89.4999 93.5059 89.985 93.9079C90.4703 94.3235 90.8583 94.8228 91.1494 95.4049C91.4404 95.987 91.5791 96.6245 91.5791 97.3313V107.311ZM92.2443 97.3313C92.2443 96.5274 92.0781 95.7929 91.7452 95.1414C91.4127 94.49 90.9693 93.9356 90.4146 93.4782C89.8742 93.0206 89.2504 92.6603 88.5436 92.4111C87.8367 92.1616 87.1159 92.0228 86.3674 92.0228C85.6191 92.0228 84.8843 92.1476 84.1775 92.4111C83.4706 92.6603 82.8328 93.0206 82.2924 93.4782C81.7517 93.9356 81.3084 94.49 80.9618 95.1414C80.6292 95.7929 80.4628 96.5274 80.4628 97.3313V107.311C80.4628 108.101 80.6292 108.822 80.9618 109.473C81.2944 110.125 81.738 110.679 82.2924 111.15C82.8328 111.622 83.4706 111.968 84.1775 112.218C84.8843 112.467 85.6191 112.592 86.3674 112.592C87.1159 112.592 87.8367 112.467 88.5436 112.218C89.2504 111.968 89.8742 111.622 90.4146 111.15C90.9553 110.679 91.3989 110.125 91.7452 109.473C92.0781 108.822 92.2443 108.101 92.2443 107.311V97.3313ZM92.9097 107.311C92.9097 108.17 92.7433 108.96 92.3967 109.681C92.0504 110.402 91.5928 111.026 90.997 111.552C90.4146 112.079 89.7218 112.495 88.9316 112.786C88.1416 113.077 87.2823 113.216 86.3814 113.216C85.4804 113.216 84.6348 113.077 83.8309 112.786C83.041 112.495 82.3341 112.093 81.738 111.552C81.1419 111.026 80.6846 110.402 80.338 109.681C80.0055 108.96 79.839 108.17 79.839 107.311V97.3313C79.839 96.472 80.0055 95.6684 80.338 94.9476C80.6706 94.2128 81.1419 93.5893 81.738 93.076C82.3341 92.5633 83.027 92.1476 83.8309 91.8564C84.6211 91.5655 85.4804 91.4268 86.3814 91.4268C87.2823 91.4268 88.1276 91.5655 88.9316 91.8564C89.7218 92.1476 90.4146 92.5495 90.997 93.076C91.5791 93.5893 92.0504 94.2267 92.3967 94.9476C92.7433 95.6818 92.9097 96.472 92.9097 97.3313V107.311Z" fill="#192F44"/>
<path d="M30.8113 103.809H25.2574V112.801H24.6224V103.226H30.8113V103.809ZM22.668 112.801H22.0001V91.7732H34.3516V92.3556H22.668V112.801ZM23.303 92.9807H34.3516V93.5631H23.9972V102.035H30.8113V102.618H23.9972V112.788H23.303V92.9807ZM24.6224 94.1718H34.3516V94.7541H25.2574V100.831H30.8113V101.414H24.6224V94.1718Z" fill="#192F44"/>
<path d="M104.24 110.416H97.3512V91.7871H97.989V109.833H104.24V110.416ZM104.226 111.594H96.0206V91.7731H96.686V111.012H104.226V111.594ZM104.226 112.814H94.7316V91.7871H95.3968V112.231H104.226V112.814Z" fill="#192F44"/>
<path d="M118.379 72.5926C118.296 72.5509 118.254 72.5372 118.254 72.5372C118.254 72.5372 118.296 72.5509 118.379 72.5926C118.379 67.561 117.838 61.116 117.838 61.116V61.0883C111.671 59.5079 107.18 59.217 107.18 59.217V59.2447V59.217C101.954 66.5632 101.455 68.8362 101.428 68.961C101.455 68.961 101.469 68.947 101.497 68.947C101.469 68.947 101.455 68.961 101.428 68.961C105.974 75.7251 108.33 77.1388 108.33 77.1388C112.377 75.9883 118.379 72.5926 118.379 72.5926Z" fill="#192F44"/>
<path d="M126.407 56.0341C126.407 56.0341 126.407 56.0481 126.407 56.0341C126.407 56.0341 133.711 59.8319 135.194 61.9941C135.319 62.1882 136.677 61.2318 137.398 59.5686C136.858 58.6814 136.248 57.8358 135.596 57.0322C135.583 57.0182 135.583 57.0042 135.569 56.9905C135.472 56.8794 135.374 56.7549 135.277 56.6439C135.264 56.6302 135.236 56.6022 135.222 56.5882C135.125 56.4775 135.028 56.3667 134.931 56.2696C134.903 56.2419 134.889 56.2143 134.862 56.1866C134.765 56.0895 134.668 55.9787 134.585 55.8814C134.557 55.854 134.529 55.826 134.501 55.7986C134.404 55.7013 134.307 55.6045 134.21 55.5074C134.183 55.4797 134.155 55.452 134.127 55.4241C134.03 55.3273 133.933 55.2299 133.836 55.1331C133.808 55.1052 133.781 55.0778 133.753 55.0498C133.656 54.953 133.559 54.8559 133.448 54.7726C133.42 54.7452 133.392 54.7172 133.365 54.6898C133.268 54.5924 133.157 54.5094 133.06 54.4123C133.032 54.3846 133.004 54.3569 132.977 54.3429C132.866 54.2462 132.769 54.1628 132.658 54.0657C132.63 54.0383 132.602 54.0243 132.575 53.9964C132.464 53.8996 132.353 53.8162 132.242 53.7194C132.214 53.7055 132.187 53.6778 132.173 53.6638C132.062 53.567 131.937 53.4836 131.826 53.3869C131.799 53.3729 131.785 53.3589 131.757 53.3315C131.632 53.2341 131.521 53.1511 131.397 53.054C131.383 53.04 131.369 53.0263 131.355 53.0123C131.23 52.9155 131.092 52.8182 130.967 52.7354C130.953 52.7354 130.953 52.7214 130.939 52.7214C128.929 51.3217 126.684 50.2263 124.286 49.5195C124.3 49.5474 125.506 52.2501 126.407 56.0341Z" fill="#192F44"/>
<path d="M134.471 87.1154C134.582 87.0046 134.679 86.8798 134.79 86.7688C134.831 86.7274 134.859 86.686 134.901 86.644C134.998 86.5333 135.095 86.4225 135.192 86.3115C135.233 86.2701 135.261 86.2284 135.303 86.1727C135.4 86.0619 135.483 85.9512 135.58 85.8404C135.622 85.7987 135.649 85.757 135.691 85.7017C135.788 85.5906 135.871 85.4659 135.968 85.3551C135.996 85.3137 136.024 85.272 136.065 85.2303C136.162 85.1056 136.259 84.9671 136.356 84.8284C136.37 84.801 136.398 84.773 136.412 84.7453C136.647 84.4127 136.883 84.0801 137.091 83.7336C137.202 83.5674 137.299 83.4007 137.396 83.2345C137.41 83.2069 137.437 83.1652 137.451 83.1375C137.534 82.9987 137.617 82.86 137.687 82.7218C137.715 82.6801 137.742 82.6385 137.756 82.5831C137.825 82.4583 137.895 82.3199 137.978 82.1951C138.006 82.1532 138.033 82.0978 138.061 82.0564C138.13 81.9316 138.2 81.7932 138.269 81.6544C138.297 81.613 138.311 81.5574 138.338 81.5157C138.408 81.3772 138.477 81.2385 138.532 81.1C138.546 81.0583 138.574 81.0169 138.588 80.975C138.657 80.8088 138.726 80.6564 138.796 80.4902C138.81 80.4623 138.81 80.4485 138.823 80.4209C138.99 80.0326 139.142 79.6586 139.281 79.2567C137.479 74.2114 136.121 73.158 135.996 73.0192C135.996 73.0192 135.982 73.0052 135.968 73.0192C132.475 76.4013 128.899 77.9674 128.289 78.1893C128.262 78.203 128.234 78.2446 128.234 78.2723C128.178 81.4049 126.792 87.7668 126.779 87.8362C127.014 87.6977 126.543 87.9889 126.779 87.8362C126.543 87.9889 127.014 87.6977 126.779 87.8362C129.967 88.3352 132.503 87.961 133.958 87.6144C134.097 87.4756 134.235 87.3375 134.374 87.1847C134.416 87.1707 134.443 87.1433 134.471 87.1154Z" fill="#192F44"/>
<path d="M116.614 91.9302L116.864 91.8885C112.206 90.3778 107.84 86.982 107.84 86.982C107.826 86.982 107.826 86.982 107.812 86.9957C105.637 87.5641 102.961 87.5501 101.312 87.467C102.268 88.4514 103.308 89.3521 104.417 90.156C104.417 90.156 104.431 90.156 104.431 90.1699C104.555 90.267 104.694 90.3498 104.819 90.4471C104.833 90.4611 104.846 90.4611 104.86 90.4746C104.985 90.5579 105.11 90.6413 105.235 90.7244C105.248 90.7381 105.276 90.752 105.29 90.7658C105.415 90.8491 105.539 90.9322 105.664 91.0013C105.692 91.0153 105.706 91.0292 105.734 91.0432C105.858 91.126 105.983 91.1954 106.108 91.2788C106.136 91.2927 106.149 91.3064 106.177 91.3202C106.302 91.3895 106.426 91.4726 106.565 91.542C106.593 91.556 106.607 91.5699 106.635 91.5836C106.759 91.6527 106.898 91.7361 107.037 91.8055C107.05 91.8194 107.078 91.8194 107.092 91.8332C107.23 91.9023 107.369 91.9716 107.508 92.041C107.522 92.041 107.535 92.055 107.549 92.055C107.702 92.1241 107.84 92.1934 107.993 92.2768C109.24 92.8729 110.557 93.3579 111.929 93.7182H111.943C112.096 93.7599 112.262 93.8013 112.414 93.8429C112.428 93.8429 112.442 93.8566 112.47 93.8566C112.622 93.8983 112.775 93.926 112.927 93.9677C112.955 93.9677 112.969 93.9814 112.997 93.9814C113.149 94.0091 113.301 94.0508 113.454 94.0785C113.482 94.0785 113.509 94.0924 113.537 94.0924C113.689 94.1201 113.842 94.1478 113.995 94.1755C114.022 94.1755 114.05 94.1892 114.078 94.1892C114.23 94.2172 114.383 94.2449 114.535 94.2586C114.563 94.2586 114.59 94.2726 114.618 94.2726C114.771 94.3006 114.923 94.314 115.089 94.328C115.117 94.328 115.131 94.328 115.159 94.342C115.325 94.3559 115.478 94.3834 115.644 94.3973H115.685C115.852 94.4113 116.032 94.425 116.198 94.4387C116.697 93.2052 116.85 91.9439 116.864 91.9023L116.614 91.9302Z" fill="#192F44"/>
<path d="M116.776 91.9162C116.776 91.9162 116.721 91.9025 116.748 91.8885C112.091 90.3778 107.739 86.982 107.739 86.982C107.725 86.982 107.697 86.996 107.697 86.996C105.521 87.5641 102.846 87.5501 101.197 87.467C102.153 88.4511 103.193 89.3521 104.301 90.156C104.301 90.156 104.315 90.156 104.315 90.1699C104.44 90.2667 104.579 90.3501 104.703 90.4472C104.717 90.4609 104.731 90.4609 104.745 90.4748C104.87 90.5579 104.995 90.6413 105.119 90.7244C105.133 90.7381 105.161 90.752 105.175 90.766C105.299 90.8488 105.424 90.9322 105.549 91.0016C105.577 91.0155 105.591 91.0292 105.618 91.043C105.743 91.1263 105.868 91.1957 105.993 91.2788C106.02 91.2927 106.034 91.3064 106.062 91.3202C106.186 91.3895 106.311 91.4729 106.45 91.5422C106.478 91.5562 106.491 91.5697 106.519 91.5837C106.644 91.653 106.783 91.7361 106.921 91.8055C106.935 91.8192 106.963 91.8192 106.977 91.8332C107.115 91.9025 107.254 91.9716 107.392 92.041C107.406 92.041 107.42 92.055 107.434 92.055C107.586 92.1243 107.725 92.1937 107.878 92.2765C109.125 92.8726 110.442 93.3579 111.814 93.7182H111.828C111.98 93.7599 112.147 93.8013 112.299 93.8429C112.313 93.8429 112.327 93.8569 112.355 93.8569C112.507 93.8983 112.659 93.926 112.812 93.9677C112.84 93.9677 112.854 93.9814 112.881 93.9814C113.034 94.0094 113.186 94.0508 113.339 94.0787C113.366 94.0787 113.394 94.0924 113.422 94.0924C113.574 94.1201 113.727 94.1481 113.879 94.1755C113.907 94.1755 113.935 94.1895 113.962 94.1895C114.115 94.2172 114.267 94.2449 114.42 94.2589C114.447 94.2589 114.475 94.2729 114.503 94.2729C114.656 94.3003 114.808 94.3143 114.974 94.3282C115.002 94.3282 115.016 94.3282 115.043 94.342C115.21 94.3557 115.362 94.3836 115.529 94.3973H115.57C115.736 94.4113 115.917 94.425 116.083 94.439C116.582 93.2055 116.748 91.8609 116.748 91.9025C116.748 91.8885 116.776 91.9162 116.776 91.9162Z" fill="#192F44"/>
<path d="M95.7618 70.6711C95.6093 70.7265 95.5263 70.7544 95.5263 70.7544C95.5263 70.7544 95.6093 70.7265 95.7618 70.6711C95.7618 70.6574 95.7618 70.6711 95.7618 70.6711C95.7618 70.6711 95.4846 69.0495 95.2351 67.4138C95.2074 67.5525 95.1934 67.6912 95.1657 67.8297C95.1657 67.8714 95.152 67.9128 95.152 67.9545C95.138 68.0792 95.1103 68.204 95.0963 68.3287C95.0826 68.3841 95.0826 68.4395 95.0686 68.4949C95.0549 68.6059 95.041 68.7167 95.0272 68.8414C95.0133 68.9108 95.0133 68.9802 94.9996 69.0495C94.9856 69.1603 94.9719 69.2574 94.9719 69.3682C94.9579 69.4515 94.9579 69.5346 94.9439 69.6177C94.9302 69.7147 94.9302 69.8118 94.9162 69.9088C94.9162 70.0059 94.9025 70.103 94.9025 70.1998C94.9025 70.2831 94.8885 70.3799 94.8885 70.4632C94.8885 70.574 94.8748 70.699 94.8748 70.8098C94.8748 70.8792 94.8748 70.9486 94.8608 71.0176C94.8608 71.1978 94.8471 71.3919 94.8471 71.5721C94.8471 71.7802 94.8471 71.988 94.8608 72.2095C94.8608 72.2789 94.8608 72.3483 94.8748 72.4176C94.8748 72.5561 94.8885 72.6948 94.8885 72.8473C94.8885 72.9304 94.9025 73.0137 94.9025 73.0828C94.9162 73.2076 94.9162 73.3463 94.9302 73.4711C94.9302 73.5541 94.9439 73.6372 94.9579 73.7206C94.9719 73.8453 94.9856 73.9698 94.9996 74.0946C95.0133 74.1779 95.0133 74.2613 95.0272 74.3441C95.041 74.4691 95.0549 74.5938 95.0826 74.7186C95.0963 74.8014 95.1103 74.8708 95.1103 74.9541C95.1243 75.0789 95.152 75.2173 95.1657 75.3421C95.1797 75.4115 95.1934 75.4808 95.2074 75.5639C95.2351 75.7164 95.2628 75.8551 95.2905 76.0075C95.3044 76.0629 95.3044 76.1183 95.3182 76.16C95.3598 76.3678 95.4015 76.562 95.4429 76.7698C95.4569 74.4828 95.5123 71.4753 95.7618 70.6711Z" fill="#192F44"/>
<path d="M95.7618 70.6711C95.6093 70.7265 95.5263 70.7544 95.5263 70.7544C95.5263 70.7544 95.6093 70.7265 95.7618 70.6711C95.7618 70.6711 95.4846 69.0495 95.2351 67.4138C95.2074 67.5525 95.1934 67.6912 95.1657 67.8297C95.1657 67.8711 95.152 67.9128 95.152 67.9545C95.138 68.0792 95.1103 68.204 95.0963 68.3287C95.0826 68.3841 95.0826 68.4395 95.0686 68.4949C95.0549 68.6059 95.041 68.7167 95.0272 68.8414C95.0133 68.9108 95.0133 68.9802 94.9996 69.0495C94.9856 69.1603 94.9719 69.2574 94.9719 69.3682C94.9579 69.4515 94.9579 69.5343 94.9439 69.6177C94.9302 69.7147 94.9302 69.8118 94.9162 69.9088C94.9162 70.0056 94.9025 70.103 94.9025 70.1998C94.9025 70.2831 94.8885 70.3799 94.8885 70.4632C94.8885 70.574 94.8748 70.699 94.8748 70.8098C94.8748 70.8792 94.8748 70.9483 94.8608 71.0176C94.8608 71.1978 94.8471 71.3919 94.8471 71.5721C94.8471 71.7799 94.8471 71.988 94.8608 72.2095C94.8608 72.2789 94.8608 72.3483 94.8748 72.4174C94.8748 72.5561 94.8885 72.6948 94.8885 72.8473C94.8885 72.9304 94.9025 73.0134 94.9025 73.0828C94.9162 73.2076 94.9162 73.3463 94.9302 73.4711C94.9302 73.5541 94.9439 73.6372 94.9579 73.7203L94.9996 74.0946C95.0133 74.1779 95.0133 74.261 95.0272 74.3441C95.041 74.4691 95.0549 74.5938 95.0826 74.7186C95.0963 74.8014 95.1103 74.8708 95.1103 74.9541C95.1243 75.0786 95.152 75.2173 95.1657 75.3421C95.1797 75.4115 95.1934 75.4808 95.2074 75.5639C95.2351 75.7164 95.2628 75.8548 95.2905 76.0075C95.3044 76.0629 95.3044 76.1183 95.3182 76.16C95.3598 76.3678 95.4015 76.5617 95.4429 76.7698C95.4569 74.4825 95.5123 71.475 95.7618 70.6711Z" fill="#192F44"/>
<path d="M106.393 52.9502V52.8254C106.379 52.8671 106.393 52.9088 106.393 52.9502C106.407 52.9362 110.108 50.1088 113.448 49C112.742 49.1387 112.035 49.3049 111.342 49.5127H111.328C110.427 49.7762 109.54 50.1088 108.68 50.4831C108.667 50.4971 108.639 50.4971 108.625 50.5108C108.417 50.5938 108.223 50.6909 108.029 50.788C108.029 50.788 108.015 50.788 108.015 50.8017C107.599 50.9958 107.184 51.2039 106.782 51.4254C106.754 51.4394 106.74 51.4531 106.712 51.4671C106.546 51.5642 106.366 51.6612 106.199 51.758C106.172 51.772 106.13 51.8 106.102 51.8134C105.922 51.9245 105.756 52.0215 105.576 52.1326C105.562 52.1463 105.548 52.1463 105.534 52.16C105.34 52.2847 105.146 52.4095 104.952 52.5342C104.952 52.5342 104.938 52.5342 104.938 52.5482C104.758 52.673 104.591 52.784 104.425 52.9088C104.384 52.9362 104.342 52.9642 104.314 52.9916C104.176 53.0889 104.037 53.1997 103.885 53.3105C103.843 53.3384 103.815 53.3661 103.774 53.3938C103.607 53.5323 103.441 53.657 103.275 53.7958C104.065 53.574 105.077 53.2968 106.393 52.9502Z" fill="#192F44"/>
</svg>
