<svg width="163" height="163" viewBox="0 0 163 163" fill="none" xmlns="http://www.w3.org/2000/svg">
<rect width="163" height="163" fill="white"/>
<path d="M31.4443 60.3881C19.601 60.3881 10 69.9896 10 81.8324C10 93.6776 19.601 103.279 31.4443 103.279C43.2875 103.279 52.8886 93.6776 52.8886 81.8329C52.89 69.9896 43.289 60.3881 31.4443 60.3881ZM41.2784 91.3166C40.8937 91.9487 40.07 92.146 39.4408 91.7614C34.4044 88.684 28.0666 87.989 20.602 89.6936C19.8827 89.858 19.1663 89.4076 19.0018 88.6883C18.8374 87.969 19.2864 87.2526 20.0071 87.0881C28.1753 85.2205 35.1837 86.0242 40.8351 89.4777C41.4657 89.8652 41.6659 90.687 41.2784 91.3166ZM43.9039 85.4789C43.4191 86.2654 42.3895 86.5128 41.6044 86.0295C35.8415 82.4873 27.0542 81.4606 20.2359 83.5298C19.3522 83.7972 18.4184 83.2982 18.1496 82.4158C17.8836 81.5321 18.3812 80.5997 19.265 80.3309C27.0527 77.9685 36.7353 79.1125 43.3547 83.1809C44.1398 83.6642 44.3872 84.6938 43.9039 85.4789ZM44.1298 79.3985C37.2172 75.293 25.8158 74.9155 19.2163 76.9189C18.1567 77.2407 17.0356 76.6415 16.7153 75.5819C16.3935 74.5222 16.9913 73.4026 18.0523 73.0794C25.627 70.7799 38.2196 71.2247 46.1776 75.948C47.1314 76.5142 47.4431 77.744 46.8783 78.6964C46.3134 79.6507 45.0793 79.9634 44.1298 79.3985ZM68.344 80.185C64.6417 79.3027 63.9825 78.6821 63.9825 77.3808C63.9825 76.151 65.1408 75.323 66.8625 75.323C68.5328 75.323 70.1873 75.9522 71.9233 77.2464C71.9762 77.285 72.042 77.3007 72.1063 77.2907C72.1707 77.2807 72.2279 77.245 72.2665 77.1921L74.074 74.6438C74.1484 74.5394 74.1283 74.3935 74.0282 74.3135C71.9619 72.6561 69.6367 71.8496 66.9169 71.8496C62.9186 71.8496 60.1258 74.2491 60.1258 77.6811C60.1258 81.3619 62.5353 82.6661 66.6981 83.6714C70.2416 84.4879 70.8394 85.1715 70.8394 86.3941C70.8394 87.7483 69.6296 88.5906 67.6848 88.5906C65.524 88.5906 63.7609 87.8627 61.7889 86.1553C61.7403 86.1124 61.673 86.0938 61.6116 86.0981C61.5458 86.1038 61.4871 86.1338 61.4457 86.1839L59.4179 88.5963C59.3336 88.6964 59.3436 88.8466 59.4422 88.9324C61.736 90.9801 64.5588 92.0626 67.6033 92.0626C71.9118 92.0626 74.6946 89.7088 74.6946 86.0652C74.7018 82.9893 72.8614 81.2861 68.3511 80.1893L68.344 80.185ZM84.4401 76.5333C82.5725 76.5333 81.041 77.2683 79.7783 78.7755V77.0796C79.7783 76.9451 79.6696 76.8365 79.5366 76.8365H76.2219C76.0874 76.8365 75.9802 76.9451 75.9802 77.0796V95.927C75.9802 96.0614 76.0889 96.1701 76.2219 96.1701H79.5366C79.6696 96.1701 79.7783 96.0614 79.7783 95.927V89.9782C81.041 91.3953 82.5739 92.0888 84.4401 92.0888C87.9093 92.0888 91.4213 89.4176 91.4213 84.3125C91.4271 79.206 87.9135 76.5333 84.4429 76.5333H84.4401ZM87.5675 84.312C87.5675 86.9118 85.9659 88.7264 83.6722 88.7264C81.4056 88.7264 79.6953 86.8303 79.6953 84.312C79.6953 81.7952 81.4056 79.8976 83.6722 79.8976C85.9287 79.8962 87.5675 81.7523 87.5675 84.312ZM100.425 76.5333C95.9559 76.5333 92.4552 79.9739 92.4552 84.3668C92.4552 88.7126 95.9316 92.1174 100.369 92.1174C104.853 92.1174 108.364 88.6883 108.364 84.3125C108.365 79.9505 104.878 76.5333 100.425 76.5333ZM100.425 88.7526C98.048 88.7526 96.2562 86.8436 96.2562 84.3111C96.2562 81.7685 97.9865 79.9238 100.37 79.9238C102.763 79.9238 104.566 81.8329 104.566 84.3668C104.566 86.9075 102.824 88.7526 100.425 88.7526ZM117.908 76.836H114.26V73.1065C114.26 72.9736 114.151 72.8634 114.018 72.8634H110.703C110.569 72.8634 110.46 72.9721 110.46 73.1065V76.836H108.866C108.733 76.836 108.624 76.9447 108.624 77.0791V79.9291C108.624 80.0621 108.733 80.1722 108.866 80.1722H110.46V87.5453C110.46 90.5254 111.943 92.0355 114.868 92.0355C116.057 92.0355 117.044 91.7895 117.974 91.2632C118.049 91.2203 118.097 91.1403 118.097 91.053V88.3403C118.097 88.256 118.054 88.1773 117.981 88.133C117.909 88.0872 117.819 88.0858 117.745 88.1215C117.106 88.4433 116.489 88.5906 115.799 88.5906C114.735 88.5906 114.26 88.1072 114.26 87.0247V80.1736H117.908C118.042 80.1736 118.149 80.0649 118.149 79.9305V77.0819C118.155 76.9475 118.047 76.8388 117.911 76.8388L117.908 76.836ZM130.619 76.8508V76.3932C130.619 75.0461 131.135 74.4441 132.295 74.4441C132.986 74.4441 133.542 74.5813 134.163 74.7887C134.24 74.813 134.318 74.8001 134.381 74.7544C134.446 74.7086 134.481 74.6357 134.481 74.557V71.7628C134.481 71.6556 134.413 71.5612 134.31 71.5297C133.654 71.3338 132.813 71.1336 131.554 71.1336C128.493 71.1336 126.874 72.8582 126.874 76.1186V76.8207H125.281C125.148 76.8207 125.038 76.9294 125.038 77.0638V79.9281C125.038 80.0611 125.148 80.1712 125.281 80.1712H126.874V91.544C126.874 91.6784 126.983 91.7871 127.116 91.7871H130.43C130.565 91.7871 130.673 91.6784 130.673 91.544V80.1722H133.769L138.511 91.5421C137.974 92.7361 137.443 92.975 136.721 92.975C136.137 92.975 135.521 92.8005 134.893 92.4559C134.835 92.423 134.765 92.4173 134.7 92.4373C134.637 92.4602 134.584 92.5074 134.557 92.5688L133.433 95.0342C133.38 95.15 133.426 95.2873 133.538 95.3473C134.71 95.9822 135.77 96.254 137.078 96.254C139.527 96.254 140.879 95.1142 142.072 92.0455L147.823 77.1835C147.852 77.1091 147.843 77.0247 147.798 76.9575C147.752 76.8918 147.679 76.8517 147.597 76.8517H144.145C144.042 76.8517 143.95 76.9175 143.915 77.0147L140.38 87.1134L136.508 77.0076C136.472 76.9132 136.382 76.8517 136.282 76.8517L130.619 76.8508ZM123.249 76.836H119.934C119.8 76.836 119.691 76.9447 119.691 77.0791V91.5435C119.691 91.678 119.8 91.7866 119.934 91.7866H123.249C123.382 91.7866 123.492 91.678 123.492 91.5435V77.0805C123.492 76.9461 123.385 76.8374 123.249 76.836C123.25 76.8374 123.249 76.8374 123.249 76.836ZM121.61 70.2508C120.297 70.2508 119.231 71.3148 119.231 72.6275C119.231 73.9417 120.296 75.0056 121.61 75.0056C122.923 75.0056 123.988 73.9417 123.988 72.6275C123.988 71.3133 122.923 70.2508 121.61 70.2508ZM150.655 81.4863C149.342 81.4863 148.321 80.4324 148.321 79.1526C148.321 77.8727 149.355 76.8074 150.666 76.8074C151.979 76.8074 153 77.8613 153 79.1397C153 80.4196 151.966 81.4863 150.655 81.4863ZM150.668 77.0405C149.472 77.0405 148.568 77.99 148.568 79.154C148.568 80.3166 149.466 81.2547 150.656 81.2547C151.852 81.2547 152.757 80.3052 152.757 79.1411C152.755 77.9771 151.856 77.0405 150.668 77.0405ZM151.185 79.38L151.845 80.3037H151.288L150.695 79.4557H150.183V80.3037H149.717V77.8541H150.809C151.378 77.8541 151.753 78.1459 151.753 78.6349C151.756 79.0368 151.523 79.2813 151.187 79.3785L151.185 79.38ZM150.791 78.2746H150.183V79.0496H150.791C151.094 79.0496 151.275 78.9009 151.275 78.6621C151.274 78.4104 151.092 78.2746 150.791 78.2746Z" fill="#2EBD59"/>
</svg>
