<svg width="163" height="163" viewBox="0 0 163 163" fill="none" xmlns="http://www.w3.org/2000/svg">
<rect width="163" height="163" fill="white"/>
<g clip-path="url(#clip0_6_171)">
<path fill-rule="evenodd" clip-rule="evenodd" d="M50.6158 62.8127C52.5095 62.8127 54.3654 62.8127 56.234 62.8127C56.234 75.2813 56.234 87.7386 56.234 100.195C56.0464 100.239 50.8582 100.237 50.6693 100.189C50.6693 99.6345 50.6693 99.0748 50.6693 98.5152C50.6693 97.9551 50.6693 97.395 50.6693 96.7936C50.597 96.8559 50.5503 96.8912 50.5095 96.9321C48.7812 98.6537 46.7353 99.8179 44.3725 100.423C42.9291 100.793 41.4632 100.924 39.9749 100.846C38.4667 100.768 36.9959 100.501 35.5831 99.9664C31.6166 98.4645 28.9504 95.6831 27.5161 91.7064C27.1273 90.6284 26.8876 89.514 26.7506 88.3762C26.6609 87.6303 26.6236 86.8824 26.6238 86.1313C26.6245 78.4597 26.6243 70.7883 26.6243 63.1166C26.6243 63.02 26.6243 62.9235 26.6243 62.814C28.5006 62.814 30.3561 62.814 32.2285 62.814C32.2351 62.8629 32.2458 62.9157 32.2487 62.9685C32.2522 63.0385 32.2495 63.1088 32.2495 63.1788C32.2495 70.675 32.2498 78.1711 32.2491 85.6671C32.2491 86.3973 32.28 87.1246 32.395 87.8465C32.7211 89.8916 33.5089 91.7169 34.9702 93.2158C36.1201 94.3955 37.5065 95.1712 39.1058 95.5515C41.1422 96.0354 43.1462 95.9255 45.0785 95.0944C47.3362 94.1231 48.8807 92.4428 49.8151 90.1868C50.2009 89.2555 50.4424 88.2847 50.535 87.2811C50.5807 86.7862 50.6123 86.2881 50.6127 85.7915C50.6174 78.2324 50.616 70.673 50.616 63.1139C50.6158 63.0178 50.6158 62.9215 50.6158 62.8127Z" fill="black"/>
<path fill-rule="evenodd" clip-rule="evenodd" d="M65.7578 96.8626C65.7578 97.9881 65.7578 99.093 65.7578 100.211C63.9703 100.211 62.1996 100.211 60.4131 100.211C60.4131 87.7426 60.4131 75.2807 60.4131 62.8109C62.2105 62.8109 63.9953 62.8109 65.8049 62.8109C65.8049 67.3308 65.8049 71.8408 65.8049 76.396C65.8859 76.3263 65.933 76.2899 65.9754 76.2486C67.6668 74.6009 69.6463 73.4547 71.9267 72.8351C73.2621 72.4724 74.6223 72.3289 76.0049 72.3793C78.6793 72.477 81.1546 73.2249 83.3857 74.7052C86.5736 76.8204 88.5934 79.7597 89.4596 83.488C89.7713 84.8293 89.8663 86.1913 89.7777 87.5615C89.3684 93.9 84.9304 98.9381 79.1093 100.416C77.8175 100.744 76.5048 100.907 75.1746 100.865C71.6059 100.752 68.5177 99.4751 65.9354 96.9974C65.895 96.9585 65.8539 96.9205 65.8129 96.8826C65.8082 96.8786 65.8006 96.8779 65.7578 96.8626ZM65.7094 86.6493C65.6981 87.6891 65.865 88.7014 66.1951 89.6853C67.5746 93.7968 71.5837 96.4885 76.0297 96.0465C77.2376 95.9264 78.3761 95.5806 79.4441 95.0078C83.2272 92.9796 85.2125 88.6666 84.1765 84.3749C83.0847 79.853 78.9155 76.8799 74.4247 77.2185C73.0916 77.3191 71.8357 77.6745 70.6582 78.305C67.5973 79.944 65.6828 83.1605 65.7094 86.6493Z" fill="black"/>
<path fill-rule="evenodd" clip-rule="evenodd" d="M119.576 88.3691C112.172 88.3691 104.798 88.3691 97.3945 88.3691C97.444 88.6048 97.4796 88.8169 97.5331 89.0242C98.2499 91.7972 99.8479 93.876 102.416 95.1765C103.388 95.6687 104.426 95.9528 105.513 96.0483C107.316 96.2068 109.05 95.9497 110.687 95.1516C111.982 94.52 113.051 93.6056 113.955 92.4914C114.052 92.3715 114.147 92.2496 114.243 92.1295C114.251 92.12 114.267 92.1167 114.297 92.1018C115.584 93.0533 116.877 94.0101 118.18 94.9738C118.142 95.0313 118.118 95.073 118.089 95.1106C115.924 97.9146 113.132 99.7366 109.658 100.486C108.252 100.789 106.826 100.876 105.393 100.783C102.909 100.621 100.581 99.9359 98.4706 98.6004C95.1867 96.5227 93.1284 93.5703 92.2685 89.7823C91.9733 88.4821 91.8685 87.1616 91.948 85.8336C92.1647 82.2033 93.524 79.0633 96.0892 76.4765C98.1005 74.4486 100.533 73.1863 103.341 72.6559C104.58 72.4217 105.831 72.372 107.089 72.4677C109.25 72.6324 111.27 73.2462 113.119 74.3824C115.65 75.9373 117.423 78.1309 118.521 80.8795C119.006 82.0958 119.308 83.3597 119.461 84.6608C119.561 85.5193 119.583 86.3802 119.576 87.2429C119.574 87.607 119.576 87.9708 119.576 88.3691ZM114.096 84.0656C114.08 83.9813 114.072 83.92 114.057 83.8603C113.859 83.0613 113.574 82.2956 113.182 81.5708C111.54 78.54 108.398 76.8657 105.056 77.177C103.571 77.3155 102.217 77.8072 101.008 78.6794C99.1976 79.9864 98.0941 81.7688 97.5415 83.9124C97.5297 83.9575 97.5337 84.0066 97.5295 84.0656C103.05 84.0656 108.558 84.0656 114.096 84.0656Z" fill="black"/>
<path fill-rule="evenodd" clip-rule="evenodd" d="M127.96 100.212C126.156 100.212 124.371 100.212 122.571 100.212C122.571 91.1286 122.571 82.0528 122.571 72.9632C124.348 72.9632 126.118 72.9632 127.904 72.9632C127.904 74.0528 127.904 75.1304 127.904 76.2077C127.917 76.2142 127.93 76.2208 127.944 76.2275C127.985 76.1702 128.029 76.1143 128.068 76.0552C128.604 75.2449 129.262 74.5534 130.066 74.005C130.961 73.3948 131.949 73.0222 133.016 72.8515C133.537 72.7681 134.061 72.7374 134.587 72.7387C135.078 72.7401 135.569 72.739 136.06 72.739C136.128 72.739 136.197 72.739 136.281 72.739C136.281 74.4242 136.281 76.0883 136.281 77.779C136.2 77.779 136.126 77.779 136.051 77.779C135.357 77.779 134.663 77.7695 133.968 77.781C132.459 77.8061 131.124 78.2881 130.014 79.3328C129.264 80.0392 128.752 80.9001 128.416 81.8689C128.099 82.7785 127.963 83.7189 127.962 84.6777C127.958 89.7613 127.96 94.8448 127.96 99.9284C127.96 100.019 127.96 100.109 127.96 100.212Z" fill="black"/>
<path fill-rule="evenodd" clip-rule="evenodd" d="M65.7091 86.6493C65.6827 83.1605 67.5972 79.944 70.6582 78.3052C71.8357 77.6747 73.0913 77.3193 74.4246 77.2187C78.9155 76.8802 83.0846 79.8532 84.1764 84.3751C85.2125 88.6666 83.2269 92.9796 79.4441 95.008C78.376 95.5808 77.2376 95.9266 76.0297 96.0467C71.5839 96.4885 67.5746 93.7968 66.1951 89.6856C65.865 88.7012 65.698 87.6889 65.7091 86.6493Z" fill="white"/>
<path fill-rule="evenodd" clip-rule="evenodd" d="M114.096 84.0656C108.558 84.0656 103.05 84.0656 97.5295 84.0656C97.5337 84.0066 97.5297 83.9575 97.5415 83.9125C98.094 81.7688 99.1976 79.9864 101.008 78.6795C102.217 77.8072 103.571 77.3153 105.056 77.177C108.398 76.8657 111.54 78.5401 113.182 81.5708C113.574 82.2956 113.859 83.0611 114.057 83.8603C114.072 83.92 114.08 83.9815 114.096 84.0656Z" fill="white"/>
</g>
<defs>
<clipPath id="clip0_6_171">
<rect width="111" height="38.9215" fill="white" transform="translate(26 62.2077)"/>
</clipPath>
</defs>
</svg>
