<svg width="163" height="163" viewBox="0 0 163 163" fill="none" xmlns="http://www.w3.org/2000/svg">
<rect width="163" height="163" fill="white"/>
<g clip-path="url(#clip0_6_3)">
<path d="M50.1098 39.8231C50.1122 47.195 50.113 54.5668 50.1122 61.9385C50.1983 64.2736 49.5596 66.7428 48.1067 68.6044C46.7091 70.4045 44.6643 71.5883 42.4073 71.9039C41.4481 72.0203 40.4783 72.0195 39.5193 71.9014C38.3378 71.7459 37.2013 71.347 36.1816 70.7302C35.1619 70.1133 34.2812 69.2917 33.595 68.3173C32.4618 66.6487 31.8665 64.6733 31.8891 62.6564C31.8939 55.0453 31.8939 47.4334 31.8891 39.8207C30.0084 39.8183 28.127 39.8183 26.2448 39.8207C26.2424 47.5131 26.2432 55.2064 26.2472 62.9004C26.2424 66.6138 27.568 70.2866 30.2023 72.9424C33.8509 76.6534 39.6486 77.7946 44.5608 76.3351C46.667 75.6914 48.5869 74.5488 50.1572 73.0045C50.1644 74.0954 50.162 75.1891 50.1596 76.28C52.0306 76.2849 53.8993 76.2825 55.7705 76.2825C55.7705 64.1277 55.7697 51.9737 55.7681 39.8202C53.8829 39.8207 51.995 39.8176 50.1098 39.8231Z" fill="black"/>
<path d="M84.9278 53.1503C80.9273 49.2383 74.6202 48.0181 69.4665 50.229C67.8835 50.9066 66.4421 51.8757 65.2171 53.0858C65.2577 48.6639 65.2244 44.2421 65.2338 39.8202C63.4416 39.8202 61.6497 39.813 59.8551 39.825V76.2725C61.64 76.294 63.425 76.2798 65.2099 76.2822C65.2123 75.2055 65.2027 74.1288 65.2196 73.0545C67.7605 75.5258 71.1596 76.9175 74.7041 76.9377C77.8213 76.9955 80.8737 76.0443 83.4062 74.2259C86.0865 72.2954 87.9829 69.4652 88.7489 66.2521C89.3074 63.9245 89.2487 61.4915 88.5785 59.1937C87.9083 56.8958 86.6499 54.8127 84.9278 53.1503ZM83.4968 65.2802C83.0328 67.0827 82.0396 68.7048 80.6451 69.9375C79.2506 71.1702 77.5188 71.9569 75.673 72.1962C74.1942 72.2704 72.7635 72.2928 71.3614 71.7463C67.6552 70.4949 65.0089 66.8341 65.1596 62.8958C65.1548 58.4256 68.7319 54.5047 73.1487 53.9711C75.9386 53.4855 79.0513 54.5477 81.0469 56.5527C82.1797 57.6685 83.0016 59.0606 83.4313 60.5914C83.861 62.1222 83.8837 63.7387 83.4971 65.2809L83.4968 65.2802Z" fill="black"/>
<path d="M113.338 51.7742C108.909 48.4938 102.411 48.36 97.7596 51.2598C95.9472 52.3811 94.4188 53.9064 93.2939 55.7166C92.1691 57.5268 91.4782 59.5726 91.2754 61.6942C91.0889 63.7037 91.3294 65.73 91.9812 67.64C93.1151 70.9052 95.4617 73.6091 98.5348 75.1912C100.451 76.17 102.549 76.7433 104.697 76.8755C106.845 77.0076 108.997 76.6958 111.02 75.9594C113.548 74.9979 115.756 73.3476 117.394 71.1956C116.085 70.2482 114.771 69.3053 113.463 68.3555C111.888 70.442 109.632 71.8833 107.014 72.1909C105.462 72.2675 103.969 72.3129 102.496 71.7219C99.4165 70.6345 97.2798 67.9222 96.6457 64.752C104.005 64.7448 111.365 64.744 118.723 64.7496C118.723 63.0507 118.792 61.3974 118.405 59.7297C117.743 56.5487 115.941 53.7194 113.338 51.7742ZM96.7955 60.5626C97.2371 58.5886 98.3416 56.8253 99.9251 55.5666C101.476 54.3839 103.378 53.7553 105.328 53.7817C107.167 53.871 108.929 54.5459 110.357 55.7077C111.891 56.9495 112.814 58.6699 113.312 60.5578C107.807 60.5699 102.301 60.5578 96.7955 60.5626Z" fill="black"/>
<path d="M130.173 50.1809C128.857 50.7366 127.905 51.7145 127.07 52.8439C127.072 51.7983 127.072 50.7527 127.07 49.707C125.285 49.7046 123.499 49.7046 121.71 49.707C121.708 58.5646 121.708 67.4223 121.71 76.28C123.512 76.28 125.314 76.2943 127.115 76.2703C127.115 71.0949 127.115 65.9188 127.113 60.7419C127.163 58.4928 128.266 56.1695 130.324 55.1049C131.987 54.2292 133.583 54.4445 135.385 54.4206C135.387 52.7792 135.385 51.1402 135.387 49.4988C133.554 49.4838 131.884 49.3912 130.173 50.1809Z" fill="black"/>
<path d="M33.3179 116.266C33.2964 113.249 33.3107 110.232 33.3107 107.215C39.5126 107.215 45.7135 107.214 51.9136 107.212C51.9161 105.202 51.9169 103.192 51.9161 101.18C45.7142 101.173 39.5116 101.172 33.3083 101.178C33.3083 98.2063 33.3091 95.2362 33.3107 92.2678C39.6728 92.263 46.0341 92.2614 52.3945 92.263C52.3993 90.1742 52.4001 88.0854 52.3969 85.9965C43.6804 85.9846 34.964 85.983 26.2475 85.9917C26.238 98.1608 26.2364 110.332 26.2427 122.506C34.9616 122.516 43.6796 122.516 52.3969 122.506C52.3945 120.42 52.4066 118.333 52.3897 116.248C46.0323 116.248 39.675 116.211 33.3179 116.266Z" fill="#5FB709"/>
<path d="M107.668 101.633C107.668 99.599 107.667 97.5661 107.665 95.534C105.048 95.5316 102.43 95.5364 99.8123 95.5316C99.805 92.9667 99.8147 90.4042 99.8075 87.8392C97.4865 87.8392 95.1656 87.84 92.8449 87.8416C92.8352 90.4041 92.8449 92.9667 92.8424 95.5292C91.0742 95.5458 89.3062 95.5173 87.5403 95.5458C87.5476 97.5755 87.5379 99.6038 87.5452 101.633C89.311 101.638 91.0744 101.63 92.84 101.635C92.8424 106.509 92.8424 111.381 92.84 116.252C92.8397 117.334 93.1314 118.396 93.6843 119.325C94.2371 120.255 95.0307 121.019 95.9812 121.535C97.3916 122.249 98.9625 122.586 100.542 122.514C102.918 122.504 105.291 122.516 107.667 122.506C107.667 120.453 107.666 118.4 107.664 116.345C105.848 116.328 104.03 116.371 102.216 116.326C101.388 116.318 100.498 116.053 100.09 115.273C99.712 114.591 99.822 113.896 99.8053 113.141C99.815 109.306 99.8053 105.47 99.8101 101.637C102.43 101.63 105.048 101.64 107.668 101.633Z" fill="#5FB709"/>
<path d="M77.6182 97.8952C75.6145 96.2774 73.1931 95.2611 70.635 94.9642C66.2182 94.4162 61.6028 95.8735 58.4299 99.0198C54.4462 102.824 53.1517 108.918 55.152 114.039C55.871 115.884 56.9672 117.558 58.3703 118.955C59.7733 120.353 61.4526 121.442 63.3005 122.153C66.1716 123.266 69.3127 123.481 72.3088 122.77C74.2515 122.279 76.0662 121.376 77.63 120.123C77.6203 120.918 77.6203 121.712 77.6228 122.507C79.9627 122.514 82.3036 122.515 84.6453 122.509C84.6477 113.517 84.6477 104.527 84.6453 95.5364C82.3053 95.5316 79.963 95.5364 77.6228 95.534C77.6229 96.3211 77.6214 97.1081 77.6182 97.8952ZM74.2206 115.768C73.2742 116.404 72.2104 116.844 71.0915 117.063C69.9727 117.282 68.8214 117.276 67.7052 117.044C65.6611 116.608 63.8523 115.426 62.631 113.73C61.9881 112.821 61.5377 111.791 61.3073 110.702C61.0769 109.613 61.0714 108.488 61.2911 107.397C61.6078 105.873 62.3482 104.469 63.427 103.347C64.5059 102.225 65.8795 101.43 67.3899 101.054C70.3736 100.336 73.6395 101.226 75.6878 103.545C76.9857 105.008 77.7291 106.88 77.7885 108.835C77.8112 110.195 77.4973 111.54 76.8748 112.749C76.2523 113.959 75.3406 114.996 74.2206 115.768Z" fill="#5FB709"/>
<path d="M135.372 111.333C134.47 109.543 132.774 108.354 130.965 107.603C128.63 106.626 126.359 106.401 123.88 105.854C122.325 105.497 120.676 105.318 119.168 104.806C118.513 104.564 117.807 104.294 117.458 103.64C117.311 103.259 117.286 102.842 117.386 102.446C117.486 102.049 117.705 101.694 118.015 101.427C118.888 100.659 120.233 100.442 121.358 100.379C123.111 100.317 125.105 100.43 126.612 101.432C127.624 102.09 128.126 103.112 128.435 104.244H135.391C135.266 101.791 134.264 99.4199 132.394 97.792C129.705 95.4712 126.226 94.9449 122.793 94.8395C119.579 94.861 116.179 95.2462 113.444 97.0838C112.609 97.6287 111.893 98.3365 111.338 99.1649C110.784 99.9933 110.402 100.925 110.216 101.905C109.988 103.677 110.036 105.4 111.037 106.946C112.408 109.142 115.188 110.274 117.593 110.896C120.517 111.583 123.453 112.227 126.384 112.889C127.137 113.078 128.126 113.375 128.604 114.03C129.202 115.009 128.707 116.141 127.812 116.722C126.412 117.648 124.419 117.694 122.797 117.636C121.098 117.572 119.201 117.318 117.909 116.105C117.198 115.477 116.854 114.665 116.528 113.794C114.186 113.787 111.843 113.787 109.501 113.794C109.953 116.172 110.987 118.388 112.841 119.989C114.827 121.726 117.344 122.585 119.923 122.941C121.613 123.228 123.239 123.171 124.955 123.145C127.601 122.963 130.231 122.388 132.461 120.886C133.346 120.31 134.106 119.561 134.695 118.684C135.283 117.807 135.688 116.82 135.885 115.782C136.09 114.285 136.078 112.706 135.372 111.333Z" fill="#5FB709"/>
</g>
<defs>
<clipPath id="clip0_6_3">
<rect width="109.759" height="83.3629" fill="white" transform="translate(26.241 39.8185)"/>
</clipPath>
</defs>
</svg>
